# xmcd CD database file generated by Grip 3.2.0
# 
# Track frame offsets:
#       150
#       13361
#       26984
#       40740
# 
# Disc length: 753 seconds
# 
# Revision: 2
# Processed by: cddbd v1.5.1PL0 Copyright (c) Steve Scherf et al.
# Submitted via: Grip 3.2.0
# 
DISCID=2f02ef04
DTITLE=Shaquillle O'Neal featuring DJ Tomekk - How You Like That
DYEAR=2001
DGENRE=Rap
TTITLE0=How You Like That -radio
TTITLE1=How You Like That -instrumental
TTITLE2=Shaq's Theme
TTITLE3=Hidden Track
EXTD=
EXTT0=
EXTT1=
EXTT2=
EXTT3=
PLAYORDER=
